<mxfile host="65bd71144e">
    <diagram id="tTetpN0Oh3tOEN_fCne6" name="Page-1">
        <mxGraphModel dx="2452" dy="1023" grid="1" gridSize="10" guides="1" tooltips="1" connect="1" arrows="1" fold="1" page="1" pageScale="1" pageWidth="827" pageHeight="1169" math="0" shadow="0">
            <root>
                <mxCell id="0"/>
                <mxCell id="1" parent="0"/>
                <mxCell id="5" value="" style="edgeStyle=none;html=1;" edge="1" parent="1" source="3" target="29">
                    <mxGeometry relative="1" as="geometry">
                        <mxPoint x="340" y="130" as="targetPoint"/>
                    </mxGeometry>
                </mxCell>
                <mxCell id="3" value="Inicio" style="ellipse;whiteSpace=wrap;html=1;fillColor=#60a917;fontColor=#ffffff;strokeColor=#2D7600;" vertex="1" parent="1">
                    <mxGeometry x="272.5" y="20" width="120" height="80" as="geometry"/>
                </mxCell>
                <mxCell id="7" style="edgeStyle=none;html=1;exitX=1;exitY=0.5;exitDx=0;exitDy=0;entryX=0.5;entryY=0;entryDx=0;entryDy=0;" edge="1" parent="1" source="28" target="6">
                    <mxGeometry relative="1" as="geometry">
                        <mxPoint x="390" y="160" as="sourcePoint"/>
                        <mxPoint x="520" y="320" as="targetPoint"/>
                        <Array as="points">
                            <mxPoint x="580" y="265"/>
                        </Array>
                    </mxGeometry>
                </mxCell>
                <mxCell id="8" value="Residuo !=0" style="edgeLabel;html=1;align=center;verticalAlign=middle;resizable=0;points=[];" vertex="1" connectable="0" parent="7">
                    <mxGeometry x="-0.3238" y="-1" relative="1" as="geometry">
                        <mxPoint as="offset"/>
                    </mxGeometry>
                </mxCell>
                <mxCell id="12" style="edgeStyle=none;html=1;exitX=0;exitY=0.5;exitDx=0;exitDy=0;entryX=0.5;entryY=0;entryDx=0;entryDy=0;" edge="1" parent="1" source="28" target="11">
                    <mxGeometry relative="1" as="geometry">
                        <mxPoint x="290" y="160" as="sourcePoint"/>
                        <mxPoint x="80" y="280" as="targetPoint"/>
                        <Array as="points">
                            <mxPoint x="80" y="265"/>
                        </Array>
                    </mxGeometry>
                </mxCell>
                <mxCell id="31" value="Residuo=0" style="edgeLabel;html=1;align=center;verticalAlign=middle;resizable=0;points=[];" vertex="1" connectable="0" parent="12">
                    <mxGeometry x="-0.266" y="2" relative="1" as="geometry">
                        <mxPoint as="offset"/>
                    </mxGeometry>
                </mxCell>
                <mxCell id="10" style="edgeStyle=none;html=1;exitX=0.003;exitY=0.444;exitDx=0;exitDy=0;entryX=0.5;entryY=1;entryDx=0;entryDy=0;exitPerimeter=0;entryPerimeter=0;" edge="1" parent="1" source="6" target="28">
                    <mxGeometry relative="1" as="geometry">
                        <mxPoint x="340" y="190" as="targetPoint"/>
                        <Array as="points">
                            <mxPoint x="340" y="320"/>
                        </Array>
                    </mxGeometry>
                </mxCell>
                <mxCell id="6" value="El valor del cheque debe ser multiplo de 100" style="shape=document;whiteSpace=wrap;html=1;boundedLbl=1;fillColor=#0050ef;fontColor=#ffffff;strokeColor=#001DBC;" vertex="1" parent="1">
                    <mxGeometry x="520" y="280" width="120" height="90" as="geometry"/>
                </mxCell>
                <mxCell id="17" style="edgeStyle=none;html=1;exitX=1;exitY=0.5;exitDx=0;exitDy=0;entryX=0.5;entryY=0;entryDx=0;entryDy=0;" edge="1" parent="1" source="11" target="33">
                    <mxGeometry relative="1" as="geometry">
                        <mxPoint x="320" y="420" as="targetPoint"/>
                        <Array as="points">
                            <mxPoint x="320" y="360"/>
                        </Array>
                    </mxGeometry>
                </mxCell>
                <mxCell id="25" style="edgeStyle=none;html=1;exitX=0;exitY=0.5;exitDx=0;exitDy=0;entryX=0.51;entryY=0.001;entryDx=0;entryDy=0;entryPerimeter=0;" edge="1" parent="1" source="11" target="24">
                    <mxGeometry relative="1" as="geometry">
                        <Array as="points">
                            <mxPoint x="-140" y="360"/>
                        </Array>
                    </mxGeometry>
                </mxCell>
                <mxCell id="11" value="valor_cheque !=0" style="rhombus;whiteSpace=wrap;html=1;fillColor=#6a00ff;fontColor=#ffffff;strokeColor=#3700CC;" vertex="1" parent="1">
                    <mxGeometry x="10" y="290" width="140" height="140" as="geometry"/>
                </mxCell>
                <mxCell id="19" style="edgeStyle=none;html=1;exitX=0.5;exitY=1;exitDx=0;exitDy=0;entryX=0.5;entryY=0;entryDx=0;entryDy=0;" edge="1" parent="1" source="14" target="18">
                    <mxGeometry relative="1" as="geometry"/>
                </mxCell>
                <mxCell id="14" value="Valor_cheque//10000&lt;br&gt;billetes _de _10000 = Valor_cheque//10000&lt;br&gt;billetes_de_2000 = (valor_cheque%10000)//2000&lt;br&gt;monedas_de_100 = (valor_cheque%10000)%2000)//100" style="rounded=0;whiteSpace=wrap;html=1;fillColor=#fa6800;fontColor=#000000;strokeColor=#C73500;" vertex="1" parent="1">
                    <mxGeometry x="160" y="630" width="320" height="105" as="geometry"/>
                </mxCell>
                <mxCell id="22" style="edgeStyle=none;html=1;exitX=0.49;exitY=0.869;exitDx=0;exitDy=0;entryX=0.5;entryY=0;entryDx=0;entryDy=0;exitPerimeter=0;" edge="1" parent="1" source="18" target="21">
                    <mxGeometry relative="1" as="geometry"/>
                </mxCell>
                <mxCell id="18" value="El cajero debe entregar&amp;nbsp; (x) billetes de 10000, (y) billetes de 2000 y (z) monedas de 100" style="shape=document;whiteSpace=wrap;html=1;boundedLbl=1;fillColor=#0050ef;fontColor=#ffffff;strokeColor=#001DBC;" vertex="1" parent="1">
                    <mxGeometry x="222.5" y="850" width="195" height="130" as="geometry"/>
                </mxCell>
                <mxCell id="23" style="edgeStyle=none;html=1;exitX=0.5;exitY=1;exitDx=0;exitDy=0;entryX=0.5;entryY=1;entryDx=0;entryDy=0;" edge="1" parent="1" source="21" target="11">
                    <mxGeometry relative="1" as="geometry">
                        <Array as="points">
                            <mxPoint x="320" y="1210"/>
                            <mxPoint x="160" y="1210"/>
                            <mxPoint x="80" y="1210"/>
                        </Array>
                    </mxGeometry>
                </mxCell>
                <mxCell id="21" value="Contador_10000= Contador_10000+billetes_de_10000&lt;br&gt;Contador_2000= Contador_2000 + billetes_de_2000&lt;br&gt;Contador_100= Contador_100 + monedas_de_100&lt;br&gt;Total_dinero=Total_dinero+Valor_cheque&lt;br&gt;número_transacciones=número_transacciones+1" style="rounded=0;whiteSpace=wrap;html=1;fillColor=#fa6800;fontColor=#000000;strokeColor=#C73500;" vertex="1" parent="1">
                    <mxGeometry x="140" y="1049" width="360" height="120" as="geometry"/>
                </mxCell>
                <mxCell id="27" style="edgeStyle=none;html=1;exitX=0.469;exitY=0.942;exitDx=0;exitDy=0;entryX=0.5;entryY=0;entryDx=0;entryDy=0;exitPerimeter=0;" edge="1" parent="1" source="24" target="26">
                    <mxGeometry relative="1" as="geometry">
                        <Array as="points">
                            <mxPoint x="-150" y="1430"/>
                        </Array>
                    </mxGeometry>
                </mxCell>
                <mxCell id="24" value="Es cierre de día. Hoy se entregaron (contador_billetes_10000) billetes de 10000, (contador_billetes_2000) billetes de 2000 y (contador_monedas_100) monedas de 100, para un total de (total_dinero) entregado en (número_transacciones) transacciones" style="shape=document;whiteSpace=wrap;html=1;boundedLbl=1;fillColor=#0050ef;fontColor=#ffffff;strokeColor=#001DBC;" vertex="1" parent="1">
                    <mxGeometry x="-260" y="470" width="235" height="180" as="geometry"/>
                </mxCell>
                <mxCell id="26" value="Fin" style="ellipse;whiteSpace=wrap;html=1;fillColor=#a20025;fontColor=#ffffff;strokeColor=#6F0000;" vertex="1" parent="1">
                    <mxGeometry x="152.5" y="1430" width="120" height="80" as="geometry"/>
                </mxCell>
                <mxCell id="28" value="valor_cheque/100" style="rhombus;whiteSpace=wrap;html=1;fillColor=#6a00ff;fontColor=#ffffff;strokeColor=#3700CC;" vertex="1" parent="1">
                    <mxGeometry x="280" y="220" width="105" height="90" as="geometry"/>
                </mxCell>
                <mxCell id="30" style="edgeStyle=none;html=1;exitX=0.5;exitY=1;exitDx=0;exitDy=0;entryX=0.5;entryY=0;entryDx=0;entryDy=0;" edge="1" parent="1" source="29" target="28">
                    <mxGeometry relative="1" as="geometry"/>
                </mxCell>
                <mxCell id="29" value="Valor cheque" style="shape=parallelogram;perimeter=parallelogramPerimeter;whiteSpace=wrap;html=1;fixedSize=1;fillColor=#e3c800;fontColor=#000000;strokeColor=#B09500;" vertex="1" parent="1">
                    <mxGeometry x="272.5" y="130" width="120" height="60" as="geometry"/>
                </mxCell>
                <mxCell id="35" style="edgeStyle=none;html=1;exitX=1;exitY=0.5;exitDx=0;exitDy=0;entryX=0.5;entryY=0;entryDx=0;entryDy=0;" edge="1" parent="1" source="33" target="34">
                    <mxGeometry relative="1" as="geometry">
                        <Array as="points">
                            <mxPoint x="160" y="475"/>
                        </Array>
                    </mxGeometry>
                </mxCell>
                <mxCell id="36" value="Residuo !=0" style="edgeLabel;html=1;align=center;verticalAlign=middle;resizable=0;points=[];" vertex="1" connectable="0" parent="35">
                    <mxGeometry x="-0.4129" y="1" relative="1" as="geometry">
                        <mxPoint as="offset"/>
                    </mxGeometry>
                </mxCell>
                <mxCell id="37" style="edgeStyle=none;html=1;exitX=0.5;exitY=1;exitDx=0;exitDy=0;entryX=0.5;entryY=0;entryDx=0;entryDy=0;" edge="1" parent="1" source="33" target="14">
                    <mxGeometry relative="1" as="geometry">
                        <Array as="points">
                            <mxPoint x="320" y="570"/>
                        </Array>
                    </mxGeometry>
                </mxCell>
                <mxCell id="33" value="valor_cheque/100" style="rhombus;whiteSpace=wrap;html=1;fillColor=#6a00ff;fontColor=#ffffff;strokeColor=#3700CC;" vertex="1" parent="1">
                    <mxGeometry x="260" y="430" width="120" height="90" as="geometry"/>
                </mxCell>
                <mxCell id="38" style="edgeStyle=none;html=1;exitX=0;exitY=0.5;exitDx=0;exitDy=0;entryX=0.5;entryY=1;entryDx=0;entryDy=0;" edge="1" parent="1" source="34" target="11">
                    <mxGeometry relative="1" as="geometry">
                        <Array as="points">
                            <mxPoint x="80" y="555"/>
                        </Array>
                    </mxGeometry>
                </mxCell>
                <mxCell id="34" value="El valor del cheque debe ser multiplo de 100" style="shape=document;whiteSpace=wrap;html=1;boundedLbl=1;fillColor=#0050ef;fontColor=#ffffff;strokeColor=#001DBC;" vertex="1" parent="1">
                    <mxGeometry x="102.5" y="510" width="120" height="90" as="geometry"/>
                </mxCell>
            </root>
        </mxGraphModel>
    </diagram>
</mxfile>